# Tiled2Unity generated file. Do not modify by hand.
# Wavefront file for 'Dungeon10_mesh_0008.obj'

# Vertices (Count = 40)
v -16 -1 0
v -17 -1 0
v -17 0 0
v -16 0 0
v -15 -1 0
v -16 -1 0
v -16 0 0
v -15 0 0
v -13 -1 0
v -14 -1 0
v -14 0 0
v -13 0 0
v -12 -1 0
v -13 -1 0
v -13 0 0
v -12 0 0
v -10 -1 0
v -11 -1 0
v -11 0 0
v -10 0 0
v -9 -1 0
v -10 -1 0
v -10 0 0
v -9 0 0
v -15 -2 0
v -16 -2 0
v -16 -1 0
v -15 -1 0
v -13 -2 0
v -14 -2 0
v -14 -1 0
v -13 -1 0
v -12 -2 0
v -13 -2 0
v -13 -1 0
v -12 -1 0
v -10 -2 0
v -11 -2 0
v -11 -1 0
v -10 -1 0

# Texture cooridinates (Count = 13)
vt 0.03125 0.875
vt 0.0625 0.875
vt 0.0625 0.90625
vt 0.03125 0.90625
vt 0.125 0.8125
vt 0.15625 0.8125
vt 0.15625 0.84375
vt 0.125 0.84375
vt 0.09375 0.90625
vt 0.09375 0.9375
vt 0.0625 0.9375
vt 0.125 0.78125
vt 0.15625 0.78125

# Normal
vn 0 0 -1

# Mesh description
g Dungeon10_mesh_0008

# Faces
f 1/1/1 2/2/1 3/3/1 4/4/1
f 5/5/1 6/6/1 7/7/1 8/8/1
f 9/5/1 10/6/1 11/7/1 12/8/1
f 13/5/1 14/6/1 15/7/1 16/8/1
f 17/5/1 18/6/1 19/7/1 20/8/1
f 21/3/1 22/9/1 23/10/1 24/11/1
f 25/12/1 26/13/1 27/6/1 28/5/1
f 29/12/1 30/13/1 31/6/1 32/5/1
f 33/12/1 34/13/1 35/6/1 36/5/1
f 37/12/1 38/13/1 39/6/1 40/5/1

