# Tiled2Unity generated file. Do not modify by hand.
# Wavefront file for 'Dungeon8_mesh_0008.obj'

# Vertices (Count = 32)
v -16 -1 0
v -17 -1 0
v -17 0 0
v -16 0 0
v -15 -1 0
v -16 -1 0
v -16 0 0
v -15 0 0
v -10 -1 0
v -11 -1 0
v -11 0 0
v -10 0 0
v -9 -1 0
v -10 -1 0
v -10 0 0
v -9 0 0
v -22 -25 0
v -23 -25 0
v -23 -24 0
v -22 -24 0
v -21 -25 0
v -22 -25 0
v -22 -24 0
v -21 -24 0
v -2 -25 0
v -3 -25 0
v -3 -24 0
v -2 -24 0
v -1 -25 0
v -2 -25 0
v -2 -24 0
v -1 -24 0

# Texture cooridinates (Count = 9)
vt 0.0625 0.875
vt 0.09375 0.875
vt 0.09375 0.90625
vt 0.0625 0.90625
vt 0.03125 0.875
vt 0.03125 0.90625
vt 0.09375 0.9375
vt 0.0625 0.9375
vt 0.03125 0.9375

# Normal
vn 0 0 -1

# Mesh description
g Dungeon8_mesh_0008

# Faces
f 1/1/1 2/2/1 3/3/1 4/4/1
f 5/5/1 6/1/1 7/4/1 8/6/1
f 9/1/1 10/2/1 11/3/1 12/4/1
f 13/5/1 14/1/1 15/4/1 16/6/1
f 17/4/1 18/3/1 19/7/1 20/8/1
f 21/6/1 22/4/1 23/8/1 24/9/1
f 25/4/1 26/3/1 27/7/1 28/8/1
f 29/6/1 30/4/1 31/8/1 32/9/1

