# Tiled2Unity generated file. Do not modify by hand.
# Wavefront file for 'Dungeon7_mesh_0003.obj'

# Vertices (Count = 376)
v -24 -1 0
v -25 -1 0
v -25 0 0
v -24 0 0
v -23 -1 0
v -24 -1 0
v -24 0 0
v -23 0 0
v -22 -1 0
v -23 -1 0
v -23 0 0
v -22 0 0
v -21 -1 0
v -22 -1 0
v -22 0 0
v -21 0 0
v -20 -1 0
v -21 -1 0
v -21 0 0
v -20 0 0
v -19 -1 0
v -20 -1 0
v -20 0 0
v -19 0 0
v -18 -1 0
v -19 -1 0
v -19 0 0
v -18 0 0
v -17 -1 0
v -18 -1 0
v -18 0 0
v -17 0 0
v -16 -1 0
v -17 -1 0
v -17 0 0
v -16 0 0
v -15 -1 0
v -16 -1 0
v -16 0 0
v -15 0 0
v -14 -1 0
v -15 -1 0
v -15 0 0
v -14 0 0
v -13 -1 0
v -14 -1 0
v -14 0 0
v -13 0 0
v -12 -1 0
v -13 -1 0
v -13 0 0
v -12 0 0
v -11 -1 0
v -12 -1 0
v -12 0 0
v -11 0 0
v -10 -1 0
v -11 -1 0
v -11 0 0
v -10 0 0
v -9 -1 0
v -10 -1 0
v -10 0 0
v -9 0 0
v -8 -1 0
v -9 -1 0
v -9 0 0
v -8 0 0
v -7 -1 0
v -8 -1 0
v -8 0 0
v -7 0 0
v -6 -1 0
v -7 -1 0
v -7 0 0
v -6 0 0
v -5 -1 0
v -6 -1 0
v -6 0 0
v -5 0 0
v -4 -1 0
v -5 -1 0
v -5 0 0
v -4 0 0
v -3 -1 0
v -4 -1 0
v -4 0 0
v -3 0 0
v -2 -1 0
v -3 -1 0
v -3 0 0
v -2 0 0
v -1 -1 0
v -2 -1 0
v -2 0 0
v -1 0 0
v -24 -2 0
v -25 -2 0
v -25 -1 0
v -24 -1 0
v 0 -2 0
v -1 -2 0
v -1 -1 0
v 0 -1 0
v -24 -3 0
v -25 -3 0
v -25 -2 0
v -24 -2 0
v 0 -3 0
v -1 -3 0
v -1 -2 0
v 0 -2 0
v -24 -4 0
v -25 -4 0
v -25 -3 0
v -24 -3 0
v 0 -4 0
v -1 -4 0
v -1 -3 0
v 0 -3 0
v -24 -5 0
v -25 -5 0
v -25 -4 0
v -24 -4 0
v 0 -5 0
v -1 -5 0
v -1 -4 0
v 0 -4 0
v -24 -6 0
v -25 -6 0
v -25 -5 0
v -24 -5 0
v 0 -6 0
v -1 -6 0
v -1 -5 0
v 0 -5 0
v -24 -7 0
v -25 -7 0
v -25 -6 0
v -24 -6 0
v 0 -7 0
v -1 -7 0
v -1 -6 0
v 0 -6 0
v -24 -8 0
v -25 -8 0
v -25 -7 0
v -24 -7 0
v 0 -8 0
v -1 -8 0
v -1 -7 0
v 0 -7 0
v -24 -9 0
v -25 -9 0
v -25 -8 0
v -24 -8 0
v 0 -9 0
v -1 -9 0
v -1 -8 0
v 0 -8 0
v -24 -10 0
v -25 -10 0
v -25 -9 0
v -24 -9 0
v 0 -10 0
v -1 -10 0
v -1 -9 0
v 0 -9 0
v -24 -11 0
v -25 -11 0
v -25 -10 0
v -24 -10 0
v 0 -11 0
v -1 -11 0
v -1 -10 0
v 0 -10 0
v -24 -12 0
v -25 -12 0
v -25 -11 0
v -24 -11 0
v -23 -12 0
v -24 -12 0
v -24 -11 0
v -23 -11 0
v -22 -12 0
v -23 -12 0
v -23 -11 0
v -22 -11 0
v -21 -12 0
v -22 -12 0
v -22 -11 0
v -21 -11 0
v -20 -12 0
v -21 -12 0
v -21 -11 0
v -20 -11 0
v -19 -12 0
v -20 -12 0
v -20 -11 0
v -19 -11 0
v -18 -12 0
v -19 -12 0
v -19 -11 0
v -18 -11 0
v -17 -12 0
v -18 -12 0
v -18 -11 0
v -17 -11 0
v -16 -12 0
v -17 -12 0
v -17 -11 0
v -16 -11 0
v -15 -12 0
v -16 -12 0
v -16 -11 0
v -15 -11 0
v -14 -12 0
v -15 -12 0
v -15 -11 0
v -14 -11 0
v -13 -12 0
v -14 -12 0
v -14 -11 0
v -13 -11 0
v -12 -12 0
v -13 -12 0
v -13 -11 0
v -12 -11 0
v -11 -12 0
v -12 -12 0
v -12 -11 0
v -11 -11 0
v -10 -12 0
v -11 -12 0
v -11 -11 0
v -10 -11 0
v -9 -12 0
v -10 -12 0
v -10 -11 0
v -9 -11 0
v -8 -12 0
v -9 -12 0
v -9 -11 0
v -8 -11 0
v -7 -12 0
v -8 -12 0
v -8 -11 0
v -7 -11 0
v -6 -12 0
v -7 -12 0
v -7 -11 0
v -6 -11 0
v -5 -12 0
v -6 -12 0
v -6 -11 0
v -5 -11 0
v -4 -12 0
v -5 -12 0
v -5 -11 0
v -4 -11 0
v -3 -12 0
v -4 -12 0
v -4 -11 0
v -3 -11 0
v -2 -12 0
v -3 -12 0
v -3 -11 0
v -2 -11 0
v -1 -12 0
v -2 -12 0
v -2 -11 0
v -1 -11 0
v 0 -12 0
v -1 -12 0
v -1 -11 0
v 0 -11 0
v -24 -13 0
v -25 -13 0
v -25 -12 0
v -24 -12 0
v -23 -13 0
v -24 -13 0
v -24 -12 0
v -23 -12 0
v -22 -13 0
v -23 -13 0
v -23 -12 0
v -22 -12 0
v -21 -13 0
v -22 -13 0
v -22 -12 0
v -21 -12 0
v -20 -13 0
v -21 -13 0
v -21 -12 0
v -20 -12 0
v -19 -13 0
v -20 -13 0
v -20 -12 0
v -19 -12 0
v -18 -13 0
v -19 -13 0
v -19 -12 0
v -18 -12 0
v -17 -13 0
v -18 -13 0
v -18 -12 0
v -17 -12 0
v -16 -13 0
v -17 -13 0
v -17 -12 0
v -16 -12 0
v -15 -13 0
v -16 -13 0
v -16 -12 0
v -15 -12 0
v -14 -13 0
v -15 -13 0
v -15 -12 0
v -14 -12 0
v -13 -13 0
v -14 -13 0
v -14 -12 0
v -13 -12 0
v -12 -13 0
v -13 -13 0
v -13 -12 0
v -12 -12 0
v -11 -13 0
v -12 -13 0
v -12 -12 0
v -11 -12 0
v -10 -13 0
v -11 -13 0
v -11 -12 0
v -10 -12 0
v -9 -13 0
v -10 -13 0
v -10 -12 0
v -9 -12 0
v -8 -13 0
v -9 -13 0
v -9 -12 0
v -8 -12 0
v -7 -13 0
v -8 -13 0
v -8 -12 0
v -7 -12 0
v -6 -13 0
v -7 -13 0
v -7 -12 0
v -6 -12 0
v -5 -13 0
v -6 -13 0
v -6 -12 0
v -5 -12 0
v -4 -13 0
v -5 -13 0
v -5 -12 0
v -4 -12 0
v -3 -13 0
v -4 -13 0
v -4 -12 0
v -3 -12 0
v -2 -13 0
v -3 -13 0
v -3 -12 0
v -2 -12 0
v -1 -13 0
v -2 -13 0
v -2 -12 0
v -1 -12 0
v 0 -13 0
v -1 -13 0
v -1 -12 0
v 0 -12 0

# Texture cooridinates (Count = 30)
vt 0.03125 0.84375
vt 0.0625 0.84375
vt 0.0625 0.875
vt 0.03125 0.875
vt 0.0625 0.65625
vt 0.09375 0.65625
vt 0.09375 0.6875
vt 0.0625 0.6875
vt 0 0.71875
vt 0.03125 0.71875
vt 0.03125 0.75
vt 0 0.75
vt 0.03125 0.8125
vt 0.0625 0.8125
vt 0.0625 0.71875
vt 0.0625 0.75
vt 0.09375 0.84375
vt 0.09375 0.875
vt 0.09375 0.8125
vt 0.0625 0.96875
vt 0.09375 0.96875
vt 0.09375 1
vt 0.0625 1
vt 0.03125 0.96875
vt 0.03125 1
vt 0.09375 0.9375
vt 0.125 0.9375
vt 0.125 0.96875
vt 0.0625 0.9375
vt 0.03125 0.9375

# Normal
vn 0 0 -1

# Mesh description
g Dungeon7_mesh_0003

# Faces
f 1/1/1 2/2/1 3/3/1 4/4/1
f 5/1/1 6/2/1 7/3/1 8/4/1
f 9/1/1 10/2/1 11/3/1 12/4/1
f 13/1/1 14/2/1 15/3/1 16/4/1
f 17/1/1 18/2/1 19/3/1 20/4/1
f 21/5/1 22/6/1 23/7/1 24/8/1
f 25/5/1 26/6/1 27/7/1 28/8/1
f 29/5/1 30/6/1 31/7/1 32/8/1
f 33/5/1 34/6/1 35/7/1 36/8/1
f 37/5/1 38/6/1 39/7/1 40/8/1
f 41/5/1 42/6/1 43/7/1 44/8/1
f 45/5/1 46/6/1 47/7/1 48/8/1
f 49/5/1 50/6/1 51/7/1 52/8/1
f 53/5/1 54/6/1 55/7/1 56/8/1
f 57/5/1 58/6/1 59/7/1 60/8/1
f 61/5/1 62/6/1 63/7/1 64/8/1
f 65/5/1 66/6/1 67/7/1 68/8/1
f 69/5/1 70/6/1 71/7/1 72/8/1
f 73/5/1 74/6/1 75/7/1 76/8/1
f 77/5/1 78/6/1 79/7/1 80/8/1
f 81/5/1 82/6/1 83/7/1 84/8/1
f 85/5/1 86/6/1 87/7/1 88/8/1
f 89/5/1 90/6/1 91/7/1 92/8/1
f 93/5/1 94/6/1 95/7/1 96/8/1
f 97/9/1 98/10/1 99/11/1 100/12/1
f 101/1/1 102/2/1 103/3/1 104/4/1
f 105/9/1 106/10/1 107/11/1 108/12/1
f 109/13/1 110/14/1 111/2/1 112/1/1
f 113/9/1 114/10/1 115/11/1 116/12/1
f 117/10/1 118/15/1 119/16/1 120/11/1
f 121/9/1 122/10/1 123/11/1 124/12/1
f 125/10/1 126/15/1 127/16/1 128/11/1
f 129/9/1 130/10/1 131/11/1 132/12/1
f 133/10/1 134/15/1 135/16/1 136/11/1
f 137/9/1 138/10/1 139/11/1 140/12/1
f 141/10/1 142/15/1 143/16/1 144/11/1
f 145/9/1 146/10/1 147/11/1 148/12/1
f 149/10/1 150/15/1 151/16/1 152/11/1
f 153/9/1 154/10/1 155/11/1 156/12/1
f 157/10/1 158/15/1 159/16/1 160/11/1
f 161/9/1 162/10/1 163/11/1 164/12/1
f 165/10/1 166/15/1 167/16/1 168/11/1
f 169/2/1 170/17/1 171/18/1 172/3/1
f 173/10/1 174/15/1 175/16/1 176/11/1
f 177/14/1 178/19/1 179/17/1 180/2/1
f 181/20/1 182/21/1 183/22/1 184/23/1
f 185/24/1 186/20/1 187/23/1 188/25/1
f 189/24/1 190/20/1 191/23/1 192/25/1
f 193/24/1 194/20/1 195/23/1 196/25/1
f 197/24/1 198/20/1 199/23/1 200/25/1
f 201/24/1 202/20/1 203/23/1 204/25/1
f 205/24/1 206/20/1 207/23/1 208/25/1
f 209/24/1 210/20/1 211/23/1 212/25/1
f 213/24/1 214/20/1 215/23/1 216/25/1
f 217/24/1 218/20/1 219/23/1 220/25/1
f 221/24/1 222/20/1 223/23/1 224/25/1
f 225/24/1 226/20/1 227/23/1 228/25/1
f 229/24/1 230/20/1 231/23/1 232/25/1
f 233/24/1 234/20/1 235/23/1 236/25/1
f 237/24/1 238/20/1 239/23/1 240/25/1
f 241/24/1 242/20/1 243/23/1 244/25/1
f 245/24/1 246/20/1 247/23/1 248/25/1
f 249/24/1 250/20/1 251/23/1 252/25/1
f 253/24/1 254/20/1 255/23/1 256/25/1
f 257/24/1 258/20/1 259/23/1 260/25/1
f 261/24/1 262/20/1 263/23/1 264/25/1
f 265/24/1 266/20/1 267/23/1 268/25/1
f 269/24/1 270/20/1 271/23/1 272/25/1
f 273/24/1 274/20/1 275/23/1 276/25/1
f 277/26/1 278/27/1 279/28/1 280/21/1
f 281/29/1 282/26/1 283/21/1 284/20/1
f 285/30/1 286/29/1 287/20/1 288/24/1
f 289/30/1 290/29/1 291/20/1 292/24/1
f 293/30/1 294/29/1 295/20/1 296/24/1
f 297/30/1 298/29/1 299/20/1 300/24/1
f 301/30/1 302/29/1 303/20/1 304/24/1
f 305/30/1 306/29/1 307/20/1 308/24/1
f 309/30/1 310/29/1 311/20/1 312/24/1
f 313/30/1 314/29/1 315/20/1 316/24/1
f 317/30/1 318/29/1 319/20/1 320/24/1
f 321/30/1 322/29/1 323/20/1 324/24/1
f 325/30/1 326/29/1 327/20/1 328/24/1
f 329/30/1 330/29/1 331/20/1 332/24/1
f 333/30/1 334/29/1 335/20/1 336/24/1
f 337/30/1 338/29/1 339/20/1 340/24/1
f 341/30/1 342/29/1 343/20/1 344/24/1
f 345/30/1 346/29/1 347/20/1 348/24/1
f 349/30/1 350/29/1 351/20/1 352/24/1
f 353/30/1 354/29/1 355/20/1 356/24/1
f 357/30/1 358/29/1 359/20/1 360/24/1
f 361/30/1 362/29/1 363/20/1 364/24/1
f 365/30/1 366/29/1 367/20/1 368/24/1
f 369/30/1 370/29/1 371/20/1 372/24/1
f 373/30/1 374/29/1 375/20/1 376/24/1

