# Tiled2Unity generated file. Do not modify by hand.
# Wavefront file for 'DungeonBoss_mesh_0007.obj'

# Vertices (Count = 192)
v -22 -3 0
v -23 -3 0
v -23 -2 0
v -22 -2 0
v -16 -3 0
v -17 -3 0
v -17 -2 0
v -16 -2 0
v -15 -3 0
v -16 -3 0
v -16 -2 0
v -15 -2 0
v -10 -3 0
v -11 -3 0
v -11 -2 0
v -10 -2 0
v -9 -3 0
v -10 -3 0
v -10 -2 0
v -9 -2 0
v -2 -3 0
v -3 -3 0
v -3 -2 0
v -2 -2 0
v -22 -4 0
v -23 -4 0
v -23 -3 0
v -22 -3 0
v -16 -4 0
v -17 -4 0
v -17 -3 0
v -16 -3 0
v -15 -4 0
v -16 -4 0
v -16 -3 0
v -15 -3 0
v -14 -4 0
v -15 -4 0
v -15 -3 0
v -14 -3 0
v -11 -4 0
v -12 -4 0
v -12 -3 0
v -11 -3 0
v -10 -4 0
v -11 -4 0
v -11 -3 0
v -10 -3 0
v -9 -4 0
v -10 -4 0
v -10 -3 0
v -9 -3 0
v -2 -4 0
v -3 -4 0
v -3 -3 0
v -2 -3 0
v -22 -5 0
v -23 -5 0
v -23 -4 0
v -22 -4 0
v -15 -5 0
v -16 -5 0
v -16 -4 0
v -15 -4 0
v -14 -5 0
v -15 -5 0
v -15 -4 0
v -14 -4 0
v -11 -5 0
v -12 -5 0
v -12 -4 0
v -11 -4 0
v -10 -5 0
v -11 -5 0
v -11 -4 0
v -10 -4 0
v -2 -5 0
v -3 -5 0
v -3 -4 0
v -2 -4 0
v -16 -8 0
v -17 -8 0
v -17 -7 0
v -16 -7 0
v -15 -8 0
v -16 -8 0
v -16 -7 0
v -15 -7 0
v -10 -8 0
v -11 -8 0
v -11 -7 0
v -10 -7 0
v -9 -8 0
v -10 -8 0
v -10 -7 0
v -9 -7 0
v -22 -9 0
v -23 -9 0
v -23 -8 0
v -22 -8 0
v -16 -9 0
v -17 -9 0
v -17 -8 0
v -16 -8 0
v -15 -9 0
v -16 -9 0
v -16 -8 0
v -15 -8 0
v -10 -9 0
v -11 -9 0
v -11 -8 0
v -10 -8 0
v -9 -9 0
v -10 -9 0
v -10 -8 0
v -9 -8 0
v -2 -9 0
v -3 -9 0
v -3 -8 0
v -2 -8 0
v -22 -10 0
v -23 -10 0
v -23 -9 0
v -22 -9 0
v -15 -10 0
v -16 -10 0
v -16 -9 0
v -15 -9 0
v -14 -10 0
v -15 -10 0
v -15 -9 0
v -14 -9 0
v -11 -10 0
v -12 -10 0
v -12 -9 0
v -11 -9 0
v -10 -10 0
v -11 -10 0
v -11 -9 0
v -10 -9 0
v -2 -10 0
v -3 -10 0
v -3 -9 0
v -2 -9 0
v -22 -11 0
v -23 -11 0
v -23 -10 0
v -22 -10 0
v -15 -11 0
v -16 -11 0
v -16 -10 0
v -15 -10 0
v -14 -11 0
v -15 -11 0
v -15 -10 0
v -14 -10 0
v -11 -11 0
v -12 -11 0
v -12 -10 0
v -11 -10 0
v -10 -11 0
v -11 -11 0
v -11 -10 0
v -10 -10 0
v -2 -11 0
v -3 -11 0
v -3 -10 0
v -2 -10 0
v -21 -14 0
v -22 -14 0
v -22 -13 0
v -21 -13 0
v -18 -14 0
v -19 -14 0
v -19 -13 0
v -18 -13 0
v -13 -14 0
v -14 -14 0
v -14 -13 0
v -13 -13 0
v -10 -14 0
v -11 -14 0
v -11 -13 0
v -10 -13 0
v -4 -14 0
v -5 -14 0
v -5 -13 0
v -4 -13 0
v -1 -14 0
v -2 -14 0
v -2 -13 0
v -1 -13 0

# Texture cooridinates (Count = 25)
vt 0.15625 0.8125
vt 0.1875 0.8125
vt 0.1875 0.84375
vt 0.15625 0.84375
vt 0.0625 0.8125
vt 0.09375 0.8125
vt 0.09375 0.84375
vt 0.0625 0.84375
vt 0.03125 0.8125
vt 0.03125 0.84375
vt 0.09375 0.875
vt 0.0625 0.875
vt 0.03125 0.875
vt 0.15625 0.78125
vt 0.1875 0.78125
vt 0.0625 0.78125
vt 0.09375 0.78125
vt 0.15625 0.75
vt 0.1875 0.75
vt 0.03125 0.78125
vt 0.09375 0.90625
vt 0.125 0.90625
vt 0.125 0.9375
vt 0.09375 0.9375
vt 0.125 0.875

# Normal
vn 0 0 -1

# Mesh description
g DungeonBoss_mesh_0007

# Faces
f 1/1/1 2/2/1 3/3/1 4/4/1
f 5/5/1 6/6/1 7/7/1 8/8/1
f 9/9/1 10/5/1 11/8/1 12/10/1
f 13/8/1 14/7/1 15/11/1 16/12/1
f 17/10/1 18/8/1 19/12/1 20/13/1
f 21/1/1 22/2/1 23/3/1 24/4/1
f 25/14/1 26/15/1 27/2/1 28/1/1
f 29/16/1 30/17/1 31/6/1 32/5/1
f 33/5/1 34/6/1 35/7/1 36/8/1
f 37/9/1 38/5/1 39/8/1 40/10/1
f 41/8/1 42/7/1 43/11/1 44/12/1
f 45/10/1 46/8/1 47/12/1 48/13/1
f 49/9/1 50/5/1 51/8/1 52/10/1
f 53/14/1 54/15/1 55/2/1 56/1/1
f 57/18/1 58/19/1 59/15/1 60/14/1
f 61/16/1 62/17/1 63/6/1 64/5/1
f 65/20/1 66/16/1 67/5/1 68/9/1
f 69/5/1 70/6/1 71/7/1 72/8/1
f 73/9/1 74/5/1 75/8/1 76/10/1
f 77/18/1 78/19/1 79/15/1 80/14/1
f 81/8/1 82/7/1 83/11/1 84/12/1
f 85/10/1 86/8/1 87/12/1 88/13/1
f 89/5/1 90/6/1 91/7/1 92/8/1
f 93/9/1 94/5/1 95/8/1 96/10/1
f 97/1/1 98/2/1 99/3/1 100/4/1
f 101/5/1 102/6/1 103/7/1 104/8/1
f 105/9/1 106/5/1 107/8/1 108/10/1
f 109/16/1 110/17/1 111/6/1 112/5/1
f 113/20/1 114/16/1 115/5/1 116/9/1
f 117/1/1 118/2/1 119/3/1 120/4/1
f 121/14/1 122/15/1 123/2/1 124/1/1
f 125/8/1 126/7/1 127/11/1 128/12/1
f 129/10/1 130/8/1 131/12/1 132/13/1
f 133/5/1 134/6/1 135/7/1 136/8/1
f 137/9/1 138/5/1 139/8/1 140/10/1
f 141/14/1 142/15/1 143/2/1 144/1/1
f 145/18/1 146/19/1 147/15/1 148/14/1
f 149/5/1 150/6/1 151/7/1 152/8/1
f 153/9/1 154/5/1 155/8/1 156/10/1
f 157/16/1 158/17/1 159/6/1 160/5/1
f 161/20/1 162/16/1 163/5/1 164/9/1
f 165/18/1 166/19/1 167/15/1 168/14/1
f 169/21/1 170/22/1 171/23/1 172/24/1
f 173/11/1 174/25/1 175/22/1 176/21/1
f 177/21/1 178/22/1 179/23/1 180/24/1
f 181/11/1 182/25/1 183/22/1 184/21/1
f 185/21/1 186/22/1 187/23/1 188/24/1
f 189/11/1 190/25/1 191/22/1 192/21/1

