# Tiled2Unity generated file. Do not modify by hand.
# Wavefront file for 'Dungeon9_mesh_0002.obj'

# Vertices (Count = 728)
v -24 -1 0
v -25 -1 0
v -25 0 0
v -24 0 0
v -23 -1 0
v -24 -1 0
v -24 0 0
v -23 0 0
v -22 -1 0
v -23 -1 0
v -23 0 0
v -22 0 0
v -21 -1 0
v -22 -1 0
v -22 0 0
v -21 0 0
v -20 -1 0
v -21 -1 0
v -21 0 0
v -20 0 0
v -19 -1 0
v -20 -1 0
v -20 0 0
v -19 0 0
v -18 -1 0
v -19 -1 0
v -19 0 0
v -18 0 0
v -17 -1 0
v -18 -1 0
v -18 0 0
v -17 0 0
v -16 -1 0
v -17 -1 0
v -17 0 0
v -16 0 0
v -15 -1 0
v -16 -1 0
v -16 0 0
v -15 0 0
v -14 -1 0
v -15 -1 0
v -15 0 0
v -14 0 0
v -13 -1 0
v -14 -1 0
v -14 0 0
v -13 0 0
v -12 -1 0
v -13 -1 0
v -13 0 0
v -12 0 0
v -11 -1 0
v -12 -1 0
v -12 0 0
v -11 0 0
v -10 -1 0
v -11 -1 0
v -11 0 0
v -10 0 0
v -9 -1 0
v -10 -1 0
v -10 0 0
v -9 0 0
v -8 -1 0
v -9 -1 0
v -9 0 0
v -8 0 0
v -7 -1 0
v -8 -1 0
v -8 0 0
v -7 0 0
v -6 -1 0
v -7 -1 0
v -7 0 0
v -6 0 0
v -5 -1 0
v -6 -1 0
v -6 0 0
v -5 0 0
v -4 -1 0
v -5 -1 0
v -5 0 0
v -4 0 0
v -3 -1 0
v -4 -1 0
v -4 0 0
v -3 0 0
v -2 -1 0
v -3 -1 0
v -3 0 0
v -2 0 0
v -1 -1 0
v -2 -1 0
v -2 0 0
v -1 0 0
v 0 -1 0
v -1 -1 0
v -1 0 0
v 0 0 0
v -24 -2 0
v -25 -2 0
v -25 -1 0
v -24 -1 0
v -13 -2 0
v -14 -2 0
v -14 -1 0
v -13 -1 0
v -12 -2 0
v -13 -2 0
v -13 -1 0
v -12 -1 0
v 0 -2 0
v -1 -2 0
v -1 -1 0
v 0 -1 0
v -24 -3 0
v -25 -3 0
v -25 -2 0
v -24 -2 0
v -13 -3 0
v -14 -3 0
v -14 -2 0
v -13 -2 0
v -12 -3 0
v -13 -3 0
v -13 -2 0
v -12 -2 0
v 0 -3 0
v -1 -3 0
v -1 -2 0
v 0 -2 0
v -24 -4 0
v -25 -4 0
v -25 -3 0
v -24 -3 0
v -13 -4 0
v -14 -4 0
v -14 -3 0
v -13 -3 0
v -12 -4 0
v -13 -4 0
v -13 -3 0
v -12 -3 0
v 0 -4 0
v -1 -4 0
v -1 -3 0
v 0 -3 0
v -24 -5 0
v -25 -5 0
v -25 -4 0
v -24 -4 0
v -13 -5 0
v -14 -5 0
v -14 -4 0
v -13 -4 0
v -12 -5 0
v -13 -5 0
v -13 -4 0
v -12 -4 0
v 0 -5 0
v -1 -5 0
v -1 -4 0
v 0 -4 0
v -24 -6 0
v -25 -6 0
v -25 -5 0
v -24 -5 0
v -13 -6 0
v -14 -6 0
v -14 -5 0
v -13 -5 0
v -12 -6 0
v -13 -6 0
v -13 -5 0
v -12 -5 0
v 0 -6 0
v -1 -6 0
v -1 -5 0
v 0 -5 0
v -24 -7 0
v -25 -7 0
v -25 -6 0
v -24 -6 0
v -13 -7 0
v -14 -7 0
v -14 -6 0
v -13 -6 0
v -12 -7 0
v -13 -7 0
v -13 -6 0
v -12 -6 0
v 0 -7 0
v -1 -7 0
v -1 -6 0
v 0 -6 0
v -24 -8 0
v -25 -8 0
v -25 -7 0
v -24 -7 0
v -13 -8 0
v -14 -8 0
v -14 -7 0
v -13 -7 0
v -12 -8 0
v -13 -8 0
v -13 -7 0
v -12 -7 0
v 0 -8 0
v -1 -8 0
v -1 -7 0
v 0 -7 0
v -24 -9 0
v -25 -9 0
v -25 -8 0
v -24 -8 0
v -13 -9 0
v -14 -9 0
v -14 -8 0
v -13 -8 0
v -12 -9 0
v -13 -9 0
v -13 -8 0
v -12 -8 0
v 0 -9 0
v -1 -9 0
v -1 -8 0
v 0 -8 0
v -24 -10 0
v -25 -10 0
v -25 -9 0
v -24 -9 0
v -13 -10 0
v -14 -10 0
v -14 -9 0
v -13 -9 0
v -12 -10 0
v -13 -10 0
v -13 -9 0
v -12 -9 0
v 0 -10 0
v -1 -10 0
v -1 -9 0
v 0 -9 0
v -24 -11 0
v -25 -11 0
v -25 -10 0
v -24 -10 0
v -13 -11 0
v -14 -11 0
v -14 -10 0
v -13 -10 0
v -12 -11 0
v -13 -11 0
v -13 -10 0
v -12 -10 0
v 0 -11 0
v -1 -11 0
v -1 -10 0
v 0 -10 0
v -24 -12 0
v -25 -12 0
v -25 -11 0
v -24 -11 0
v 0 -12 0
v -1 -12 0
v -1 -11 0
v 0 -11 0
v -24 -13 0
v -25 -13 0
v -25 -12 0
v -24 -12 0
v -23 -13 0
v -24 -13 0
v -24 -12 0
v -23 -12 0
v -22 -13 0
v -23 -13 0
v -23 -12 0
v -22 -12 0
v -21 -13 0
v -22 -13 0
v -22 -12 0
v -21 -12 0
v -20 -13 0
v -21 -13 0
v -21 -12 0
v -20 -12 0
v -19 -13 0
v -20 -13 0
v -20 -12 0
v -19 -12 0
v -18 -13 0
v -19 -13 0
v -19 -12 0
v -18 -12 0
v -17 -13 0
v -18 -13 0
v -18 -12 0
v -17 -12 0
v -16 -13 0
v -17 -13 0
v -17 -12 0
v -16 -12 0
v -15 -13 0
v -16 -13 0
v -16 -12 0
v -15 -12 0
v -14 -13 0
v -15 -13 0
v -15 -12 0
v -14 -12 0
v -13 -13 0
v -14 -13 0
v -14 -12 0
v -13 -12 0
v -12 -13 0
v -13 -13 0
v -13 -12 0
v -12 -12 0
v -11 -13 0
v -12 -13 0
v -12 -12 0
v -11 -12 0
v -10 -13 0
v -11 -13 0
v -11 -12 0
v -10 -12 0
v -9 -13 0
v -10 -13 0
v -10 -12 0
v -9 -12 0
v -8 -13 0
v -9 -13 0
v -9 -12 0
v -8 -12 0
v -7 -13 0
v -8 -13 0
v -8 -12 0
v -7 -12 0
v -6 -13 0
v -7 -13 0
v -7 -12 0
v -6 -12 0
v -5 -13 0
v -6 -13 0
v -6 -12 0
v -5 -12 0
v -4 -13 0
v -5 -13 0
v -5 -12 0
v -4 -12 0
v -3 -13 0
v -4 -13 0
v -4 -12 0
v -3 -12 0
v -2 -13 0
v -3 -13 0
v -3 -12 0
v -2 -12 0
v -1 -13 0
v -2 -13 0
v -2 -12 0
v -1 -12 0
v 0 -13 0
v -1 -13 0
v -1 -12 0
v 0 -12 0
v -24 -14 0
v -25 -14 0
v -25 -13 0
v -24 -13 0
v -13 -14 0
v -14 -14 0
v -14 -13 0
v -13 -13 0
v -12 -14 0
v -13 -14 0
v -13 -13 0
v -12 -13 0
v 0 -14 0
v -1 -14 0
v -1 -13 0
v 0 -13 0
v -24 -15 0
v -25 -15 0
v -25 -14 0
v -24 -14 0
v -13 -15 0
v -14 -15 0
v -14 -14 0
v -13 -14 0
v -12 -15 0
v -13 -15 0
v -13 -14 0
v -12 -14 0
v 0 -15 0
v -1 -15 0
v -1 -14 0
v 0 -14 0
v -24 -16 0
v -25 -16 0
v -25 -15 0
v -24 -15 0
v -13 -16 0
v -14 -16 0
v -14 -15 0
v -13 -15 0
v -12 -16 0
v -13 -16 0
v -13 -15 0
v -12 -15 0
v 0 -16 0
v -1 -16 0
v -1 -15 0
v 0 -15 0
v -24 -17 0
v -25 -17 0
v -25 -16 0
v -24 -16 0
v -13 -17 0
v -14 -17 0
v -14 -16 0
v -13 -16 0
v -12 -17 0
v -13 -17 0
v -13 -16 0
v -12 -16 0
v 0 -17 0
v -1 -17 0
v -1 -16 0
v 0 -16 0
v -24 -18 0
v -25 -18 0
v -25 -17 0
v -24 -17 0
v -13 -18 0
v -14 -18 0
v -14 -17 0
v -13 -17 0
v -12 -18 0
v -13 -18 0
v -13 -17 0
v -12 -17 0
v 0 -18 0
v -1 -18 0
v -1 -17 0
v 0 -17 0
v -24 -19 0
v -25 -19 0
v -25 -18 0
v -24 -18 0
v -13 -19 0
v -14 -19 0
v -14 -18 0
v -13 -18 0
v -12 -19 0
v -13 -19 0
v -13 -18 0
v -12 -18 0
v 0 -19 0
v -1 -19 0
v -1 -18 0
v 0 -18 0
v -24 -20 0
v -25 -20 0
v -25 -19 0
v -24 -19 0
v -13 -20 0
v -14 -20 0
v -14 -19 0
v -13 -19 0
v -12 -20 0
v -13 -20 0
v -13 -19 0
v -12 -19 0
v 0 -20 0
v -1 -20 0
v -1 -19 0
v 0 -19 0
v -24 -21 0
v -25 -21 0
v -25 -20 0
v -24 -20 0
v -13 -21 0
v -14 -21 0
v -14 -20 0
v -13 -20 0
v -12 -21 0
v -13 -21 0
v -13 -20 0
v -12 -20 0
v 0 -21 0
v -1 -21 0
v -1 -20 0
v 0 -20 0
v -24 -22 0
v -25 -22 0
v -25 -21 0
v -24 -21 0
v -13 -22 0
v -14 -22 0
v -14 -21 0
v -13 -21 0
v -12 -22 0
v -13 -22 0
v -13 -21 0
v -12 -21 0
v 0 -22 0
v -1 -22 0
v -1 -21 0
v 0 -21 0
v -24 -23 0
v -25 -23 0
v -25 -22 0
v -24 -22 0
v -13 -23 0
v -14 -23 0
v -14 -22 0
v -13 -22 0
v -12 -23 0
v -13 -23 0
v -13 -22 0
v -12 -22 0
v 0 -23 0
v -1 -23 0
v -1 -22 0
v 0 -22 0
v -24 -24 0
v -25 -24 0
v -25 -23 0
v -24 -23 0
v -23 -24 0
v -24 -24 0
v -24 -23 0
v -23 -23 0
v -22 -24 0
v -23 -24 0
v -23 -23 0
v -22 -23 0
v -21 -24 0
v -22 -24 0
v -22 -23 0
v -21 -23 0
v -20 -24 0
v -21 -24 0
v -21 -23 0
v -20 -23 0
v -19 -24 0
v -20 -24 0
v -20 -23 0
v -19 -23 0
v -18 -24 0
v -19 -24 0
v -19 -23 0
v -18 -23 0
v -17 -24 0
v -18 -24 0
v -18 -23 0
v -17 -23 0
v -16 -24 0
v -17 -24 0
v -17 -23 0
v -16 -23 0
v -15 -24 0
v -16 -24 0
v -16 -23 0
v -15 -23 0
v -14 -24 0
v -15 -24 0
v -15 -23 0
v -14 -23 0
v -13 -24 0
v -14 -24 0
v -14 -23 0
v -13 -23 0
v -12 -24 0
v -13 -24 0
v -13 -23 0
v -12 -23 0
v -11 -24 0
v -12 -24 0
v -12 -23 0
v -11 -23 0
v -10 -24 0
v -11 -24 0
v -11 -23 0
v -10 -23 0
v -9 -24 0
v -10 -24 0
v -10 -23 0
v -9 -23 0
v -8 -24 0
v -9 -24 0
v -9 -23 0
v -8 -23 0
v -7 -24 0
v -8 -24 0
v -8 -23 0
v -7 -23 0
v -6 -24 0
v -7 -24 0
v -7 -23 0
v -6 -23 0
v -5 -24 0
v -6 -24 0
v -6 -23 0
v -5 -23 0
v -4 -24 0
v -5 -24 0
v -5 -23 0
v -4 -23 0
v -3 -24 0
v -4 -24 0
v -4 -23 0
v -3 -23 0
v -2 -24 0
v -3 -24 0
v -3 -23 0
v -2 -23 0
v -1 -24 0
v -2 -24 0
v -2 -23 0
v -1 -23 0
v 0 -24 0
v -1 -24 0
v -1 -23 0
v 0 -23 0
v -24 -25 0
v -25 -25 0
v -25 -24 0
v -24 -24 0
v -23 -25 0
v -24 -25 0
v -24 -24 0
v -23 -24 0
v -22 -25 0
v -23 -25 0
v -23 -24 0
v -22 -24 0
v -21 -25 0
v -22 -25 0
v -22 -24 0
v -21 -24 0
v -20 -25 0
v -21 -25 0
v -21 -24 0
v -20 -24 0
v -19 -25 0
v -20 -25 0
v -20 -24 0
v -19 -24 0
v -18 -25 0
v -19 -25 0
v -19 -24 0
v -18 -24 0
v -17 -25 0
v -18 -25 0
v -18 -24 0
v -17 -24 0
v -16 -25 0
v -17 -25 0
v -17 -24 0
v -16 -24 0
v -15 -25 0
v -16 -25 0
v -16 -24 0
v -15 -24 0
v -14 -25 0
v -15 -25 0
v -15 -24 0
v -14 -24 0
v -13 -25 0
v -14 -25 0
v -14 -24 0
v -13 -24 0
v -12 -25 0
v -13 -25 0
v -13 -24 0
v -12 -24 0
v -11 -25 0
v -12 -25 0
v -12 -24 0
v -11 -24 0
v -10 -25 0
v -11 -25 0
v -11 -24 0
v -10 -24 0
v -9 -25 0
v -10 -25 0
v -10 -24 0
v -9 -24 0
v -8 -25 0
v -9 -25 0
v -9 -24 0
v -8 -24 0
v -7 -25 0
v -8 -25 0
v -8 -24 0
v -7 -24 0
v -6 -25 0
v -7 -25 0
v -7 -24 0
v -6 -24 0
v -5 -25 0
v -6 -25 0
v -6 -24 0
v -5 -24 0
v -4 -25 0
v -5 -25 0
v -5 -24 0
v -4 -24 0
v -3 -25 0
v -4 -25 0
v -4 -24 0
v -3 -24 0
v -2 -25 0
v -3 -25 0
v -3 -24 0
v -2 -24 0
v -1 -25 0
v -2 -25 0
v -2 -24 0
v -1 -24 0
v 0 -25 0
v -1 -25 0
v -1 -24 0
v 0 -24 0

# Texture cooridinates (Count = 36)
vt 0.09375 0.71875
vt 0.125 0.71875
vt 0.125 0.75
vt 0.09375 0.75
vt 0.0625 0.65625
vt 0.09375 0.65625
vt 0.09375 0.6875
vt 0.0625 0.6875
vt 0.0625 0.78125
vt 0.09375 0.78125
vt 0.09375 0.8125
vt 0.0625 0.8125
vt 0.03125 0.78125
vt 0.03125 0.8125
vt 0.0625 0.71875
vt 0.0625 0.75
vt 0 0.71875
vt 0.03125 0.71875
vt 0.03125 0.75
vt 0 0.75
vt 0.03125 0.84375
vt 0.0625 0.84375
vt 0.0625 0.875
vt 0.03125 0.875
vt 0.09375 0.96875
vt 0.125 0.96875
vt 0.125 1
vt 0.09375 1
vt 0.0625 0.96875
vt 0.0625 1
vt 0.03125 0.96875
vt 0.03125 1
vt 0.09375 0.9375
vt 0.125 0.9375
vt 0.0625 0.9375
vt 0.03125 0.9375

# Normal
vn 0 0 -1

# Mesh description
g Dungeon9_mesh_0002

# Faces
f 1/1/1 2/2/1 3/3/1 4/4/1
f 5/5/1 6/6/1 7/7/1 8/8/1
f 9/5/1 10/6/1 11/7/1 12/8/1
f 13/5/1 14/6/1 15/7/1 16/8/1
f 17/5/1 18/6/1 19/7/1 20/8/1
f 21/5/1 22/6/1 23/7/1 24/8/1
f 25/5/1 26/6/1 27/7/1 28/8/1
f 29/5/1 30/6/1 31/7/1 32/8/1
f 33/5/1 34/6/1 35/7/1 36/8/1
f 37/5/1 38/6/1 39/7/1 40/8/1
f 41/5/1 42/6/1 43/7/1 44/8/1
f 45/5/1 46/6/1 47/7/1 48/8/1
f 49/5/1 50/6/1 51/7/1 52/8/1
f 53/5/1 54/6/1 55/7/1 56/8/1
f 57/5/1 58/6/1 59/7/1 60/8/1
f 61/5/1 62/6/1 63/7/1 64/8/1
f 65/5/1 66/6/1 67/7/1 68/8/1
f 69/5/1 70/6/1 71/7/1 72/8/1
f 73/9/1 74/10/1 75/11/1 76/12/1
f 77/13/1 78/9/1 79/12/1 80/14/1
f 81/5/1 82/6/1 83/7/1 84/8/1
f 85/5/1 86/6/1 87/7/1 88/8/1
f 89/5/1 90/6/1 91/7/1 92/8/1
f 93/5/1 94/6/1 95/7/1 96/8/1
f 97/15/1 98/1/1 99/4/1 100/16/1
f 101/17/1 102/18/1 103/19/1 104/20/1
f 105/21/1 106/22/1 107/23/1 108/24/1
f 109/21/1 110/22/1 111/23/1 112/24/1
f 113/18/1 114/15/1 115/16/1 116/19/1
f 117/17/1 118/18/1 119/19/1 120/20/1
f 121/18/1 122/15/1 123/16/1 124/19/1
f 125/17/1 126/18/1 127/19/1 128/20/1
f 129/18/1 130/15/1 131/16/1 132/19/1
f 133/17/1 134/18/1 135/19/1 136/20/1
f 137/18/1 138/15/1 139/16/1 140/19/1
f 141/17/1 142/18/1 143/19/1 144/20/1
f 145/18/1 146/15/1 147/16/1 148/19/1
f 149/17/1 150/18/1 151/19/1 152/20/1
f 153/18/1 154/15/1 155/16/1 156/19/1
f 157/17/1 158/18/1 159/19/1 160/20/1
f 161/18/1 162/15/1 163/16/1 164/19/1
f 165/17/1 166/18/1 167/19/1 168/20/1
f 169/18/1 170/15/1 171/16/1 172/19/1
f 173/17/1 174/18/1 175/19/1 176/20/1
f 177/18/1 178/15/1 179/16/1 180/19/1
f 181/17/1 182/18/1 183/19/1 184/20/1
f 185/18/1 186/15/1 187/16/1 188/19/1
f 189/17/1 190/18/1 191/19/1 192/20/1
f 193/18/1 194/15/1 195/16/1 196/19/1
f 197/17/1 198/18/1 199/19/1 200/20/1
f 201/18/1 202/15/1 203/16/1 204/19/1
f 205/17/1 206/18/1 207/19/1 208/20/1
f 209/18/1 210/15/1 211/16/1 212/19/1
f 213/17/1 214/18/1 215/19/1 216/20/1
f 217/18/1 218/15/1 219/16/1 220/19/1
f 221/17/1 222/18/1 223/19/1 224/20/1
f 225/18/1 226/15/1 227/16/1 228/19/1
f 229/17/1 230/18/1 231/19/1 232/20/1
f 233/18/1 234/15/1 235/16/1 236/19/1
f 237/17/1 238/18/1 239/19/1 240/20/1
f 241/18/1 242/15/1 243/16/1 244/19/1
f 245/17/1 246/18/1 247/19/1 248/20/1
f 249/18/1 250/15/1 251/16/1 252/19/1
f 253/17/1 254/18/1 255/19/1 256/20/1
f 257/18/1 258/15/1 259/16/1 260/19/1
f 261/21/1 262/22/1 263/23/1 264/24/1
f 265/18/1 266/15/1 267/16/1 268/19/1
f 269/14/1 270/12/1 271/22/1 272/21/1
f 273/21/1 274/22/1 275/23/1 276/24/1
f 277/21/1 278/22/1 279/23/1 280/24/1
f 281/21/1 282/22/1 283/23/1 284/24/1
f 285/21/1 286/22/1 287/23/1 288/24/1
f 289/21/1 290/22/1 291/23/1 292/24/1
f 293/21/1 294/22/1 295/23/1 296/24/1
f 297/21/1 298/22/1 299/23/1 300/24/1
f 301/21/1 302/22/1 303/23/1 304/24/1
f 305/21/1 306/22/1 307/23/1 308/24/1
f 309/21/1 310/22/1 311/23/1 312/24/1
f 313/21/1 314/22/1 315/23/1 316/24/1
f 317/21/1 318/22/1 319/23/1 320/24/1
f 321/21/1 322/22/1 323/23/1 324/24/1
f 325/21/1 326/22/1 327/23/1 328/24/1
f 329/21/1 330/22/1 331/23/1 332/24/1
f 333/21/1 334/22/1 335/23/1 336/24/1
f 337/21/1 338/22/1 339/23/1 340/24/1
f 341/21/1 342/22/1 343/23/1 344/24/1
f 345/21/1 346/22/1 347/23/1 348/24/1
f 349/21/1 350/22/1 351/23/1 352/24/1
f 353/21/1 354/22/1 355/23/1 356/24/1
f 357/21/1 358/22/1 359/23/1 360/24/1
f 361/21/1 362/22/1 363/23/1 364/24/1
f 365/21/1 366/22/1 367/23/1 368/24/1
f 369/17/1 370/18/1 371/19/1 372/20/1
f 373/18/1 374/15/1 375/16/1 376/19/1
f 377/17/1 378/18/1 379/19/1 380/20/1
f 381/18/1 382/15/1 383/16/1 384/19/1
f 385/17/1 386/18/1 387/19/1 388/20/1
f 389/18/1 390/15/1 391/16/1 392/19/1
f 393/17/1 394/18/1 395/19/1 396/20/1
f 397/18/1 398/15/1 399/16/1 400/19/1
f 401/17/1 402/18/1 403/19/1 404/20/1
f 405/18/1 406/15/1 407/16/1 408/19/1
f 409/17/1 410/18/1 411/19/1 412/20/1
f 413/18/1 414/15/1 415/16/1 416/19/1
f 417/17/1 418/18/1 419/19/1 420/20/1
f 421/18/1 422/15/1 423/16/1 424/19/1
f 425/17/1 426/18/1 427/19/1 428/20/1
f 429/18/1 430/15/1 431/16/1 432/19/1
f 433/17/1 434/18/1 435/19/1 436/20/1
f 437/18/1 438/15/1 439/16/1 440/19/1
f 441/17/1 442/18/1 443/19/1 444/20/1
f 445/18/1 446/15/1 447/16/1 448/19/1
f 449/17/1 450/18/1 451/19/1 452/20/1
f 453/18/1 454/15/1 455/16/1 456/19/1
f 457/17/1 458/18/1 459/19/1 460/20/1
f 461/18/1 462/15/1 463/16/1 464/19/1
f 465/17/1 466/18/1 467/19/1 468/20/1
f 469/18/1 470/15/1 471/16/1 472/19/1
f 473/17/1 474/18/1 475/19/1 476/20/1
f 477/18/1 478/15/1 479/16/1 480/19/1
f 481/17/1 482/18/1 483/19/1 484/20/1
f 485/18/1 486/15/1 487/16/1 488/19/1
f 489/17/1 490/18/1 491/19/1 492/20/1
f 493/18/1 494/15/1 495/16/1 496/19/1
f 497/21/1 498/22/1 499/23/1 500/24/1
f 501/18/1 502/15/1 503/16/1 504/19/1
f 505/17/1 506/18/1 507/19/1 508/20/1
f 509/18/1 510/15/1 511/16/1 512/19/1
f 513/14/1 514/12/1 515/22/1 516/21/1
f 517/18/1 518/15/1 519/16/1 520/19/1
f 521/17/1 522/18/1 523/19/1 524/20/1
f 525/18/1 526/15/1 527/16/1 528/19/1
f 529/25/1 530/26/1 531/27/1 532/28/1
f 533/29/1 534/25/1 535/28/1 536/30/1
f 537/31/1 538/29/1 539/30/1 540/32/1
f 541/31/1 542/29/1 543/30/1 544/32/1
f 545/31/1 546/29/1 547/30/1 548/32/1
f 549/31/1 550/29/1 551/30/1 552/32/1
f 553/31/1 554/29/1 555/30/1 556/32/1
f 557/31/1 558/29/1 559/30/1 560/32/1
f 561/31/1 562/29/1 563/30/1 564/32/1
f 565/31/1 566/29/1 567/30/1 568/32/1
f 569/31/1 570/29/1 571/30/1 572/32/1
f 573/31/1 574/29/1 575/30/1 576/32/1
f 577/31/1 578/29/1 579/30/1 580/32/1
f 581/31/1 582/29/1 583/30/1 584/32/1
f 585/31/1 586/29/1 587/30/1 588/32/1
f 589/31/1 590/29/1 591/30/1 592/32/1
f 593/31/1 594/29/1 595/30/1 596/32/1
f 597/31/1 598/29/1 599/30/1 600/32/1
f 601/31/1 602/29/1 603/30/1 604/32/1
f 605/31/1 606/29/1 607/30/1 608/32/1
f 609/31/1 610/29/1 611/30/1 612/32/1
f 613/31/1 614/29/1 615/30/1 616/32/1
f 617/31/1 618/29/1 619/30/1 620/32/1
f 621/31/1 622/29/1 623/30/1 624/32/1
f 625/31/1 626/29/1 627/30/1 628/32/1
f 629/33/1 630/34/1 631/26/1 632/25/1
f 633/35/1 634/33/1 635/25/1 636/29/1
f 637/36/1 638/35/1 639/29/1 640/31/1
f 641/36/1 642/35/1 643/29/1 644/31/1
f 645/36/1 646/35/1 647/29/1 648/31/1
f 649/36/1 650/35/1 651/29/1 652/31/1
f 653/36/1 654/35/1 655/29/1 656/31/1
f 657/36/1 658/35/1 659/29/1 660/31/1
f 661/36/1 662/35/1 663/29/1 664/31/1
f 665/36/1 666/35/1 667/29/1 668/31/1
f 669/36/1 670/35/1 671/29/1 672/31/1
f 673/36/1 674/35/1 675/29/1 676/31/1
f 677/36/1 678/35/1 679/29/1 680/31/1
f 681/36/1 682/35/1 683/29/1 684/31/1
f 685/36/1 686/35/1 687/29/1 688/31/1
f 689/36/1 690/35/1 691/29/1 692/31/1
f 693/36/1 694/35/1 695/29/1 696/31/1
f 697/36/1 698/35/1 699/29/1 700/31/1
f 701/36/1 702/35/1 703/29/1 704/31/1
f 705/36/1 706/35/1 707/29/1 708/31/1
f 709/36/1 710/35/1 711/29/1 712/31/1
f 713/36/1 714/35/1 715/29/1 716/31/1
f 717/36/1 718/35/1 719/29/1 720/31/1
f 721/36/1 722/35/1 723/29/1 724/31/1
f 725/36/1 726/35/1 727/29/1 728/31/1

