# Tiled2Unity generated file. Do not modify by hand.
# Wavefront file for 'Dungeon4.2_mesh_0004.obj'

# Vertices (Count = 96)
v -22 -15 0
v -23 -15 0
v -23 -14 0
v -22 -14 0
v -15 -15 0
v -16 -15 0
v -16 -14 0
v -15 -14 0
v -10 -15 0
v -11 -15 0
v -11 -14 0
v -10 -14 0
v -2 -15 0
v -3 -15 0
v -3 -14 0
v -2 -14 0
v -22 -16 0
v -23 -16 0
v -23 -15 0
v -22 -15 0
v -15 -16 0
v -16 -16 0
v -16 -15 0
v -15 -15 0
v -10 -16 0
v -11 -16 0
v -11 -15 0
v -10 -15 0
v -2 -16 0
v -3 -16 0
v -3 -15 0
v -2 -15 0
v -22 -17 0
v -23 -17 0
v -23 -16 0
v -22 -16 0
v -15 -17 0
v -16 -17 0
v -16 -16 0
v -15 -16 0
v -10 -17 0
v -11 -17 0
v -11 -16 0
v -10 -16 0
v -2 -17 0
v -3 -17 0
v -3 -16 0
v -2 -16 0
v -22 -21 0
v -23 -21 0
v -23 -20 0
v -22 -20 0
v -15 -21 0
v -16 -21 0
v -16 -20 0
v -15 -20 0
v -10 -21 0
v -11 -21 0
v -11 -20 0
v -10 -20 0
v -2 -21 0
v -3 -21 0
v -3 -20 0
v -2 -20 0
v -22 -22 0
v -23 -22 0
v -23 -21 0
v -22 -21 0
v -15 -22 0
v -16 -22 0
v -16 -21 0
v -15 -21 0
v -10 -22 0
v -11 -22 0
v -11 -21 0
v -10 -21 0
v -2 -22 0
v -3 -22 0
v -3 -21 0
v -2 -21 0
v -22 -23 0
v -23 -23 0
v -23 -22 0
v -22 -22 0
v -15 -23 0
v -16 -23 0
v -16 -22 0
v -15 -22 0
v -10 -23 0
v -11 -23 0
v -11 -22 0
v -10 -22 0
v -2 -23 0
v -3 -23 0
v -3 -22 0
v -2 -22 0

# Texture cooridinates (Count = 8)
vt 0.15625 0.8125
vt 0.1875 0.8125
vt 0.1875 0.84375
vt 0.15625 0.84375
vt 0.15625 0.78125
vt 0.1875 0.78125
vt 0.15625 0.75
vt 0.1875 0.75

# Normal
vn 0 0 -1

# Mesh description
g Dungeon4.2_mesh_0004

# Faces
f 1/1/1 2/2/1 3/3/1 4/4/1
f 5/1/1 6/2/1 7/3/1 8/4/1
f 9/1/1 10/2/1 11/3/1 12/4/1
f 13/1/1 14/2/1 15/3/1 16/4/1
f 17/5/1 18/6/1 19/2/1 20/1/1
f 21/5/1 22/6/1 23/2/1 24/1/1
f 25/5/1 26/6/1 27/2/1 28/1/1
f 29/5/1 30/6/1 31/2/1 32/1/1
f 33/7/1 34/8/1 35/6/1 36/5/1
f 37/7/1 38/8/1 39/6/1 40/5/1
f 41/7/1 42/8/1 43/6/1 44/5/1
f 45/7/1 46/8/1 47/6/1 48/5/1
f 49/1/1 50/2/1 51/3/1 52/4/1
f 53/1/1 54/2/1 55/3/1 56/4/1
f 57/1/1 58/2/1 59/3/1 60/4/1
f 61/1/1 62/2/1 63/3/1 64/4/1
f 65/5/1 66/6/1 67/2/1 68/1/1
f 69/5/1 70/6/1 71/2/1 72/1/1
f 73/5/1 74/6/1 75/2/1 76/1/1
f 77/5/1 78/6/1 79/2/1 80/1/1
f 81/7/1 82/8/1 83/6/1 84/5/1
f 85/7/1 86/8/1 87/6/1 88/5/1
f 89/7/1 90/8/1 91/6/1 92/5/1
f 93/7/1 94/8/1 95/6/1 96/5/1

