# Tiled2Unity generated file. Do not modify by hand.
# Wavefront file for 'Dungeon4.2_mesh_0002.obj'

# Vertices (Count = 380)
v -24 -13 0
v -25 -13 0
v -25 -12 0
v -24 -12 0
v -23 -13 0
v -24 -13 0
v -24 -12 0
v -23 -12 0
v -22 -13 0
v -23 -13 0
v -23 -12 0
v -22 -12 0
v -21 -13 0
v -22 -13 0
v -22 -12 0
v -21 -12 0
v -20 -13 0
v -21 -13 0
v -21 -12 0
v -20 -12 0
v -19 -13 0
v -20 -13 0
v -20 -12 0
v -19 -12 0
v -18 -13 0
v -19 -13 0
v -19 -12 0
v -18 -12 0
v -17 -13 0
v -18 -13 0
v -18 -12 0
v -17 -12 0
v -16 -13 0
v -17 -13 0
v -17 -12 0
v -16 -12 0
v -15 -13 0
v -16 -13 0
v -16 -12 0
v -15 -12 0
v -14 -13 0
v -15 -13 0
v -15 -12 0
v -14 -12 0
v -13 -13 0
v -14 -13 0
v -14 -12 0
v -13 -12 0
v -12 -13 0
v -13 -13 0
v -13 -12 0
v -12 -12 0
v -11 -13 0
v -12 -13 0
v -12 -12 0
v -11 -12 0
v -10 -13 0
v -11 -13 0
v -11 -12 0
v -10 -12 0
v -9 -13 0
v -10 -13 0
v -10 -12 0
v -9 -12 0
v -8 -13 0
v -9 -13 0
v -9 -12 0
v -8 -12 0
v -7 -13 0
v -8 -13 0
v -8 -12 0
v -7 -12 0
v -6 -13 0
v -7 -13 0
v -7 -12 0
v -6 -12 0
v -5 -13 0
v -6 -13 0
v -6 -12 0
v -5 -12 0
v -4 -13 0
v -5 -13 0
v -5 -12 0
v -4 -12 0
v -3 -13 0
v -4 -13 0
v -4 -12 0
v -3 -12 0
v -2 -13 0
v -3 -13 0
v -3 -12 0
v -2 -12 0
v -1 -13 0
v -2 -13 0
v -2 -12 0
v -1 -12 0
v 0 -13 0
v -1 -13 0
v -1 -12 0
v 0 -12 0
v -24 -14 0
v -25 -14 0
v -25 -13 0
v -24 -13 0
v 0 -14 0
v -1 -14 0
v -1 -13 0
v 0 -13 0
v -24 -15 0
v -25 -15 0
v -25 -14 0
v -24 -14 0
v 0 -15 0
v -1 -15 0
v -1 -14 0
v 0 -14 0
v -24 -16 0
v -25 -16 0
v -25 -15 0
v -24 -15 0
v 0 -16 0
v -1 -16 0
v -1 -15 0
v 0 -15 0
v -24 -17 0
v -25 -17 0
v -25 -16 0
v -24 -16 0
v 0 -17 0
v -1 -17 0
v -1 -16 0
v 0 -16 0
v -24 -18 0
v -25 -18 0
v -25 -17 0
v -24 -17 0
v 0 -18 0
v -1 -18 0
v -1 -17 0
v 0 -17 0
v -24 -19 0
v -25 -19 0
v -25 -18 0
v -24 -18 0
v 0 -19 0
v -1 -19 0
v -1 -18 0
v 0 -18 0
v -24 -20 0
v -25 -20 0
v -25 -19 0
v -24 -19 0
v 0 -20 0
v -1 -20 0
v -1 -19 0
v 0 -19 0
v -24 -21 0
v -25 -21 0
v -25 -20 0
v -24 -20 0
v 0 -21 0
v -1 -21 0
v -1 -20 0
v 0 -20 0
v -24 -22 0
v -25 -22 0
v -25 -21 0
v -24 -21 0
v 0 -22 0
v -1 -22 0
v -1 -21 0
v 0 -21 0
v -24 -23 0
v -25 -23 0
v -25 -22 0
v -24 -22 0
v 0 -23 0
v -1 -23 0
v -1 -22 0
v 0 -22 0
v -24 -24 0
v -25 -24 0
v -25 -23 0
v -24 -23 0
v -23 -24 0
v -24 -24 0
v -24 -23 0
v -23 -23 0
v -22 -24 0
v -23 -24 0
v -23 -23 0
v -22 -23 0
v -21 -24 0
v -22 -24 0
v -22 -23 0
v -21 -23 0
v -20 -24 0
v -21 -24 0
v -21 -23 0
v -20 -23 0
v -19 -24 0
v -20 -24 0
v -20 -23 0
v -19 -23 0
v -18 -24 0
v -19 -24 0
v -19 -23 0
v -18 -23 0
v -17 -24 0
v -18 -24 0
v -18 -23 0
v -17 -23 0
v -16 -24 0
v -17 -24 0
v -17 -23 0
v -16 -23 0
v -15 -24 0
v -16 -24 0
v -16 -23 0
v -15 -23 0
v -14 -24 0
v -15 -24 0
v -15 -23 0
v -14 -23 0
v -13 -24 0
v -14 -24 0
v -14 -23 0
v -13 -23 0
v -12 -24 0
v -13 -24 0
v -13 -23 0
v -12 -23 0
v -11 -24 0
v -12 -24 0
v -12 -23 0
v -11 -23 0
v -10 -24 0
v -11 -24 0
v -11 -23 0
v -10 -23 0
v -9 -24 0
v -10 -24 0
v -10 -23 0
v -9 -23 0
v -8 -24 0
v -9 -24 0
v -9 -23 0
v -8 -23 0
v -7 -24 0
v -8 -24 0
v -8 -23 0
v -7 -23 0
v -6 -24 0
v -7 -24 0
v -7 -23 0
v -6 -23 0
v -5 -24 0
v -6 -24 0
v -6 -23 0
v -5 -23 0
v -4 -24 0
v -5 -24 0
v -5 -23 0
v -4 -23 0
v -3 -24 0
v -4 -24 0
v -4 -23 0
v -3 -23 0
v -2 -24 0
v -3 -24 0
v -3 -23 0
v -2 -23 0
v -1 -24 0
v -2 -24 0
v -2 -23 0
v -1 -23 0
v 0 -24 0
v -1 -24 0
v -1 -23 0
v 0 -23 0
v -24 -25 0
v -25 -25 0
v -25 -24 0
v -24 -24 0
v -23 -25 0
v -24 -25 0
v -24 -24 0
v -23 -24 0
v -22 -25 0
v -23 -25 0
v -23 -24 0
v -22 -24 0
v -21 -25 0
v -22 -25 0
v -22 -24 0
v -21 -24 0
v -20 -25 0
v -21 -25 0
v -21 -24 0
v -20 -24 0
v -19 -25 0
v -20 -25 0
v -20 -24 0
v -19 -24 0
v -18 -25 0
v -19 -25 0
v -19 -24 0
v -18 -24 0
v -17 -25 0
v -18 -25 0
v -18 -24 0
v -17 -24 0
v -16 -25 0
v -17 -25 0
v -17 -24 0
v -16 -24 0
v -15 -25 0
v -16 -25 0
v -16 -24 0
v -15 -24 0
v -14 -25 0
v -15 -25 0
v -15 -24 0
v -14 -24 0
v -13 -25 0
v -14 -25 0
v -14 -24 0
v -13 -24 0
v -12 -25 0
v -13 -25 0
v -13 -24 0
v -12 -24 0
v -11 -25 0
v -12 -25 0
v -12 -24 0
v -11 -24 0
v -10 -25 0
v -11 -25 0
v -11 -24 0
v -10 -24 0
v -9 -25 0
v -10 -25 0
v -10 -24 0
v -9 -24 0
v -8 -25 0
v -9 -25 0
v -9 -24 0
v -8 -24 0
v -7 -25 0
v -8 -25 0
v -8 -24 0
v -7 -24 0
v -6 -25 0
v -7 -25 0
v -7 -24 0
v -6 -24 0
v -5 -25 0
v -6 -25 0
v -6 -24 0
v -5 -24 0
v -4 -25 0
v -5 -25 0
v -5 -24 0
v -4 -24 0
v -3 -25 0
v -4 -25 0
v -4 -24 0
v -3 -24 0
v -2 -25 0
v -3 -25 0
v -3 -24 0
v -2 -24 0
v -1 -25 0
v -2 -25 0
v -2 -24 0
v -1 -24 0
v 0 -25 0
v -1 -25 0
v -1 -24 0
v 0 -24 0

# Texture cooridinates (Count = 16)
vt 0.0625 0.65625
vt 0.09375 0.65625
vt 0.09375 0.6875
vt 0.0625 0.6875
vt 0 0.71875
vt 0.03125 0.71875
vt 0.03125 0.75
vt 0 0.75
vt 0.0625 0.71875
vt 0.0625 0.75
vt 0.125 0.6875
vt 0.125 0.71875
vt 0.09375 0.71875
vt 0.09375 0.75
vt 0.09375 0.78125
vt 0.0625 0.78125

# Normal
vn 0 0 -1

# Mesh description
g Dungeon4.2_mesh_0002

# Faces
f 1/1/1 2/2/1 3/3/1 4/4/1
f 5/1/1 6/2/1 7/3/1 8/4/1
f 9/1/1 10/2/1 11/3/1 12/4/1
f 13/1/1 14/2/1 15/3/1 16/4/1
f 17/1/1 18/2/1 19/3/1 20/4/1
f 21/1/1 22/2/1 23/3/1 24/4/1
f 25/1/1 26/2/1 27/3/1 28/4/1
f 29/1/1 30/2/1 31/3/1 32/4/1
f 33/1/1 34/2/1 35/3/1 36/4/1
f 37/1/1 38/2/1 39/3/1 40/4/1
f 41/1/1 42/2/1 43/3/1 44/4/1
f 45/1/1 46/2/1 47/3/1 48/4/1
f 49/1/1 50/2/1 51/3/1 52/4/1
f 53/1/1 54/2/1 55/3/1 56/4/1
f 57/1/1 58/2/1 59/3/1 60/4/1
f 61/1/1 62/2/1 63/3/1 64/4/1
f 65/1/1 66/2/1 67/3/1 68/4/1
f 69/1/1 70/2/1 71/3/1 72/4/1
f 73/1/1 74/2/1 75/3/1 76/4/1
f 77/1/1 78/2/1 79/3/1 80/4/1
f 81/1/1 82/2/1 83/3/1 84/4/1
f 85/1/1 86/2/1 87/3/1 88/4/1
f 89/1/1 90/2/1 91/3/1 92/4/1
f 93/1/1 94/2/1 95/3/1 96/4/1
f 97/1/1 98/2/1 99/3/1 100/4/1
f 101/5/1 102/6/1 103/7/1 104/8/1
f 105/6/1 106/9/1 107/10/1 108/7/1
f 109/5/1 110/6/1 111/7/1 112/8/1
f 113/6/1 114/9/1 115/10/1 116/7/1
f 117/5/1 118/6/1 119/7/1 120/8/1
f 121/6/1 122/9/1 123/10/1 124/7/1
f 125/5/1 126/6/1 127/7/1 128/8/1
f 129/6/1 130/9/1 131/10/1 132/7/1
f 133/5/1 134/6/1 135/7/1 136/8/1
f 137/6/1 138/9/1 139/10/1 140/7/1
f 141/5/1 142/6/1 143/7/1 144/8/1
f 145/6/1 146/9/1 147/10/1 148/7/1
f 149/5/1 150/6/1 151/7/1 152/8/1
f 153/6/1 154/9/1 155/10/1 156/7/1
f 157/5/1 158/6/1 159/7/1 160/8/1
f 161/6/1 162/9/1 163/10/1 164/7/1
f 165/5/1 166/6/1 167/7/1 168/8/1
f 169/6/1 170/9/1 171/10/1 172/7/1
f 173/5/1 174/6/1 175/7/1 176/8/1
f 177/6/1 178/9/1 179/10/1 180/7/1
f 181/3/1 182/11/1 183/12/1 184/13/1
f 185/10/1 186/14/1 187/15/1 188/16/1
f 189/10/1 190/14/1 191/15/1 192/16/1
f 193/10/1 194/14/1 195/15/1 196/16/1
f 197/10/1 198/14/1 199/15/1 200/16/1
f 201/10/1 202/14/1 203/15/1 204/16/1
f 205/10/1 206/14/1 207/15/1 208/16/1
f 209/10/1 210/14/1 211/15/1 212/16/1
f 213/10/1 214/14/1 215/15/1 216/16/1
f 217/10/1 218/14/1 219/15/1 220/16/1
f 221/10/1 222/14/1 223/15/1 224/16/1
f 225/10/1 226/14/1 227/15/1 228/16/1
f 229/10/1 230/14/1 231/15/1 232/16/1
f 233/10/1 234/14/1 235/15/1 236/16/1
f 237/10/1 238/14/1 239/15/1 240/16/1
f 241/10/1 242/14/1 243/15/1 244/16/1
f 245/10/1 246/14/1 247/15/1 248/16/1
f 249/10/1 250/14/1 251/15/1 252/16/1
f 253/10/1 254/14/1 255/15/1 256/16/1
f 257/10/1 258/14/1 259/15/1 260/16/1
f 261/10/1 262/14/1 263/15/1 264/16/1
f 265/10/1 266/14/1 267/15/1 268/16/1
f 269/10/1 270/14/1 271/15/1 272/16/1
f 273/10/1 274/14/1 275/15/1 276/16/1
f 277/4/1 278/3/1 279/13/1 280/9/1
f 281/1/1 282/2/1 283/3/1 284/4/1
f 285/1/1 286/2/1 287/3/1 288/4/1
f 289/1/1 290/2/1 291/3/1 292/4/1
f 293/1/1 294/2/1 295/3/1 296/4/1
f 297/1/1 298/2/1 299/3/1 300/4/1
f 301/1/1 302/2/1 303/3/1 304/4/1
f 305/1/1 306/2/1 307/3/1 308/4/1
f 309/1/1 310/2/1 311/3/1 312/4/1
f 313/1/1 314/2/1 315/3/1 316/4/1
f 317/1/1 318/2/1 319/3/1 320/4/1
f 321/1/1 322/2/1 323/3/1 324/4/1
f 325/1/1 326/2/1 327/3/1 328/4/1
f 329/1/1 330/2/1 331/3/1 332/4/1
f 333/1/1 334/2/1 335/3/1 336/4/1
f 337/1/1 338/2/1 339/3/1 340/4/1
f 341/1/1 342/2/1 343/3/1 344/4/1
f 345/1/1 346/2/1 347/3/1 348/4/1
f 349/1/1 350/2/1 351/3/1 352/4/1
f 353/1/1 354/2/1 355/3/1 356/4/1
f 357/1/1 358/2/1 359/3/1 360/4/1
f 361/1/1 362/2/1 363/3/1 364/4/1
f 365/1/1 366/2/1 367/3/1 368/4/1
f 369/1/1 370/2/1 371/3/1 372/4/1
f 373/1/1 374/2/1 375/3/1 376/4/1
f 377/1/1 378/2/1 379/3/1 380/4/1

