# Tiled2Unity generated file. Do not modify by hand.
# Wavefront file for 'DungeonMilieuHorizontale_mesh_0004.obj'

# Vertices (Count = 92)
v -24 -1 0
v -25 -1 0
v -25 0 0
v -24 0 0
v -24 -2 0
v -25 -2 0
v -25 -1 0
v -24 -1 0
v -24 -3 0
v -25 -3 0
v -25 -2 0
v -24 -2 0
v -24 -4 0
v -25 -4 0
v -25 -3 0
v -24 -3 0
v -24 -5 0
v -25 -5 0
v -25 -4 0
v -24 -4 0
v -24 -6 0
v -25 -6 0
v -25 -5 0
v -24 -5 0
v -24 -7 0
v -25 -7 0
v -25 -6 0
v -24 -6 0
v -24 -8 0
v -25 -8 0
v -25 -7 0
v -24 -7 0
v -24 -9 0
v -25 -9 0
v -25 -8 0
v -24 -8 0
v -24 -10 0
v -25 -10 0
v -25 -9 0
v -24 -9 0
v -24 -11 0
v -25 -11 0
v -25 -10 0
v -24 -10 0
v -24 -14 0
v -25 -14 0
v -25 -13 0
v -24 -13 0
v -24 -15 0
v -25 -15 0
v -25 -14 0
v -24 -14 0
v -24 -16 0
v -25 -16 0
v -25 -15 0
v -24 -15 0
v -24 -17 0
v -25 -17 0
v -25 -16 0
v -24 -16 0
v -24 -18 0
v -25 -18 0
v -25 -17 0
v -24 -17 0
v -24 -19 0
v -25 -19 0
v -25 -18 0
v -24 -18 0
v -24 -20 0
v -25 -20 0
v -25 -19 0
v -24 -19 0
v -24 -21 0
v -25 -21 0
v -25 -20 0
v -24 -20 0
v -24 -22 0
v -25 -22 0
v -25 -21 0
v -24 -21 0
v -24 -23 0
v -25 -23 0
v -25 -22 0
v -24 -22 0
v -24 -24 0
v -25 -24 0
v -25 -23 0
v -24 -23 0
v -24 -25 0
v -25 -25 0
v -25 -24 0
v -24 -24 0

# Texture cooridinates (Count = 16)
vt 0.65625 0.90625
vt 0.6875 0.90625
vt 0.6875 0.9375
vt 0.65625 0.9375
vt 0.8125 0.84375
vt 0.84375 0.84375
vt 0.84375 0.875
vt 0.8125 0.875
vt 0.90625 0.9375
vt 0.9375 0.9375
vt 0.9375 0.96875
vt 0.90625 0.96875
vt 0.65625 0.875
vt 0.6875 0.875
vt 0.96875 0.9375
vt 0.96875 0.96875

# Normal
vn 0 0 -1

# Mesh description
g DungeonMilieuHorizontale_mesh_0004

# Faces
f 1/1/1 2/2/1 3/3/1 4/4/1
f 5/1/1 6/2/1 7/3/1 8/4/1
f 9/1/1 10/2/1 11/3/1 12/4/1
f 13/1/1 14/2/1 15/3/1 16/4/1
f 17/1/1 18/2/1 19/3/1 20/4/1
f 21/1/1 22/2/1 23/3/1 24/4/1
f 25/5/1 26/6/1 27/7/1 28/8/1
f 29/9/1 30/10/1 31/11/1 32/12/1
f 33/1/1 34/2/1 35/3/1 36/4/1
f 37/1/1 38/2/1 39/3/1 40/4/1
f 41/13/1 42/14/1 43/2/1 44/1/1
f 45/1/1 46/2/1 47/3/1 48/4/1
f 49/1/1 50/2/1 51/3/1 52/4/1
f 53/1/1 54/2/1 55/3/1 56/4/1
f 57/9/1 58/10/1 59/11/1 60/12/1
f 61/1/1 62/2/1 63/3/1 64/4/1
f 65/1/1 66/2/1 67/3/1 68/4/1
f 69/1/1 70/2/1 71/3/1 72/4/1
f 73/1/1 74/2/1 75/3/1 76/4/1
f 77/5/1 78/6/1 79/7/1 80/8/1
f 81/1/1 82/2/1 83/3/1 84/4/1
f 85/10/1 86/15/1 87/16/1 88/11/1
f 89/13/1 90/14/1 91/2/1 92/1/1

